<?xml version="1.0" standalone="no"?><!DOCTYPE svg PUBLIC "-//W3C//DTD SVG 1.1//EN" "http://www.w3.org/Graphics/SVG/1.1/DTD/svg11.dtd"><svg t="1606202318119" class="icon" viewBox="0 0 1024 1024" version="1.1" xmlns="http://www.w3.org/2000/svg" p-id="953" xmlns:xlink="http://www.w3.org/1999/xlink" width="200" height="200"><defs><style type="text/css"></style></defs><path d="M707.1 341.6s0.3-0.4 1-1.1 1.7-1.8 3.1-3.2c2.8-2.8 7-6.9 12.7-11.9 11.4-10 28.9-23.8 52.9-38.6 12-7.4 25.7-15 41.1-22.3 15.4-7.3 32.5-14.3 51.6-19.9 9.5-2.8 19.6-5.2 30.2-6.9 10.6-1.7 21.6-2.7 33.2-2.4 11.5 0.3 23.6 2 35.5 6s23.6 10.6 33.3 19.8l0.9 0.9 0.5 0.4 0.6 0.6 0.8 0.8 0.4 0.4c0.1 0.1 0.3 0.3 0.4 0.5l1.9 2.2 1.7 2.1c2.1 2.9 4 5.9 5.7 9 1.7 3.1 3.1 6.3 4.3 9.6 1.2 3.3 2.2 6.7 3 10.1 1.6 6.8 2.3 13.8 2.5 20.8 0.1 7-0.5 14-1.6 20.9-2.2 13.8-6.6 27.3-12.5 40.1-5.8 12.9-13.1 25.1-21.3 36.8-4.1 5.8-8.5 11.5-13 17.1-4.6 5.6-9.3 11-14.2 16.3-9.9 10.6-20.4 20.7-31.5 30.4-22.2 19.4-46.4 37.1-71.8 53.6-12.7 8.2-25.8 16.1-39.1 23.8-3.3 1.9-6.7 3.8-10 5.7s-6.7 3.7-10.1 5.6c-3.4 1.8-6.8 3.7-10.1 5.5-3.4 1.8-6.7 3.6-10.1 5.4-27.1 14.4-54.4 29-82.1 43.7-55.3 29.3-111.6 58.8-168.2 87.8s-113.5 57.5-170.1 84.7c-28.3 13.6-56.6 26.8-84.8 39.5-28.2 12.6-56.3 24.8-85 35.6-7.2 2.7-14.3 5.4-21.5 8.3-7.2 2.8-14.5 5.7-22.1 8.3-3.8 1.3-7.7 2.6-11.8 3.7-4.1 1.1-8.4 2.2-13.2 2.9-2.4 0.4-5 0.7-7.8 0.8s-6 0.2-9.9-0.2c-2-0.2-4.1-0.6-6.6-1.2s-5.4-1.6-8.7-3.3c-3.3-1.7-7.3-4.4-10.9-8.5-1.8-2.1-3.4-4.4-4.7-6.9-1.3-2.5-2.2-5.1-2.9-7.6-1.2-5-1.3-9.2-1-12.6 0.3-3.4 1-6.1 1.7-8.4 0.7-2.3 1.5-4.1 2.2-5.8l0.6-1.2 0.6-1.1c0.4-0.7 0.2-0.4 0.3-0.6l0.3-0.6c0.9-1.6 1.7-3.1 2.6-4.7 0.7-1.3 1.4-2.7 2.2-4 0.7-1.3 1.4-2.7 2.1-4.1l2.1-4.2c0.7-1.4 1.4-2.8 2-4.2s1.3-2.8 1.9-4.2c4.9-11.3 8.9-22.6 11.5-33.9 2.6-11.3 3.7-22.7 3.1-34.1-0.5-11.4-2.9-22.7-6.9-33.6-3.9-10.9-9.5-21.4-16.1-31.2S63.8 660 55.8 651.6c-16.5-17.1-34.5-31.2-51.8-44.2l-0.8-0.6s-0.4-0.3-0.6-0.5c-0.7-0.6-1.1-1-1.6-1.9-0.5-0.8-0.8-1.9-0.9-3 0-1.1 0.2-2 0.5-2.7 0.6-1.4 1.2-2 1.7-2.6 1-1 1.8-1.6 2.6-2.1s1.5-0.9 2.2-1.2c2.8-1.4 5.5-2.4 8.1-3.2 5.3-1.8 10.5-3.1 15.6-4.3S41 583 46 582.1s9.9-1.7 14.8-2.4c19.5-2.8 37.9-4.3 55.1-4.6s33.2 0.5 47.8 2.3 27.7 4.7 39.2 8.3c11.4 3.6 21.2 7.8 28.9 12 7.8 4.1 13.5 8 17.4 10.7 1.9 1.4 3.4 2.4 4.4 3.2 1 0.7 1.5 1.1 1.5 1.1l1.7 1.3c11 8.3 13.2 24.1 4.9 35.1s-24.1 13.2-35.1 4.9c-3.2-2.4-5.6-5.5-7.3-8.8 0 0-0.2-0.4-0.5-1.1-0.4-0.7-0.9-1.7-1.7-3.1-1.6-2.7-4.2-6.6-8.5-11.2-2.1-2.3-4.7-4.8-7.8-7.4-3.1-2.6-6.6-5.2-10.8-7.9-8.2-5.2-18.7-10.3-31.2-14.5-25.1-8.3-58.6-12.5-96.5-8.9-4.7 0.5-9.5 1.1-14.4 1.8-4.8 0.8-9.7 1.6-14.6 2.7s-9.8 2.4-14.6 4c-2.3 0.8-4.7 1.7-6.7 2.7-0.5 0.2-0.9 0.5-1.3 0.7s-0.6 0.5-0.6 0.4 0.2-0.2 0.6-0.9c0.1-0.4 0.3-1 0.3-1.7s-0.3-1.5-0.6-2-0.5-0.7-0.9-1.1c0 0-0.1-0.1 0.2 0.1l0.8 0.6C28.1 611 47.2 623.8 66.4 639c9.6 7.6 19.2 15.8 28.4 25.1s18.1 19.7 25.8 31.7c7.7 11.9 14.2 25.5 18.4 40.2s6.2 30.5 5.8 46.3-3 31.5-7.2 46.7c-0.6 1.9-1.1 3.8-1.7 5.7-0.6 1.9-1.2 3.7-1.8 5.6-0.6 1.9-1.3 3.7-1.9 5.6-0.7 1.8-1.3 3.7-2.1 5.6-0.8 1.9-1.5 3.8-2.3 5.6-0.7 1.6-1.4 3.3-2.1 4.9l-0.3 0.6c-0.1 0.2-0.4 0.9-0.3 0.6v0.1c0.1-0.1 0.2-0.2 0.4-0.8 0.2-0.6 0.5-1.5 0.7-3.2 0.2-1.6 0.2-4.1-0.6-7.3s-2.7-7-5.1-9.8c-2.4-2.7-4.9-4.3-6.6-5.2-1.8-0.9-2.9-1.2-3.7-1.4-0.8-0.2-1.1-0.2-1.3-0.2-0.1 0-0.1 0 0.1 0.1 0.2 0 0.5 0.1 0.9 0.1h3c2.4-0.1 5.2-0.4 8.2-0.7 3-0.4 6.2-0.8 9.5-1.3 6.5-1.1 13.3-2.5 20.1-4.2 6.8-1.8 13.7-3.9 20.5-6.2 27.3-9.5 55.2-20.5 83.2-32 28.1-11.6 56.4-23.8 84.8-36.4 56.9-25.2 114.3-51.9 171.6-79.1 57.3-27.2 114.3-54.9 170.3-82.5 28-13.8 55.8-27.6 83.1-41.3l10.2-5.1 5.1-2.6 5-2.6c3.3-1.7 6.7-3.4 10-5.1 3.3-1.7 6.6-3.4 9.9-5.2 13.1-7.1 25.9-14.4 38.4-22 25-15.2 48.5-31.5 70-49.3 10.7-8.9 20.9-18.1 30.4-27.8 4.7-4.8 9.3-9.7 13.6-14.8 4.3-5 8.5-10.1 12.4-15.3 7.7-10.5 14.6-21.3 20-32.4 5.4-11.2 9.5-22.6 11.7-34.1 1.1-5.7 1.7-11.5 1.8-17.1 0-5.6-0.4-11.2-1.5-16.4-0.5-2.6-1.2-5.2-2-7.7s-1.8-4.9-2.9-7.2c-1.1-2.3-2.4-4.4-3.8-6.4l-1.1-1.5-1-1.2c-0.1-0.1-0.2-0.2-0.3-0.4l-0.4-0.4-0.8-0.8s-0.4-0.5-0.2-0.2l-0.3-0.3-0.7-0.7c-7.4-7.4-16.3-12.8-25.9-16.3-9.6-3.6-19.8-5.3-30-5.9-10.1-0.5-20.2 0.1-30 1.4-9.8 1.3-19.2 3.3-28.3 5.7-18.2 4.8-34.8 11.1-49.9 17.7-15 6.6-28.5 13.7-40.3 20.5-23.7 13.7-41 26.7-52.1 36-5.6 4.7-9.7 8.5-12.3 11.1-1.4 1.3-2.3 2.3-3 3s-1 1.1-1 1.1c-2.1 2.2-5.7 2.2-7.8 0.1-2-2.5-2.1-5.9 0-8.1z" p-id="954" fill="#1890ff"></path><path d="M661.5 416.1s-0.5-1-1.6-2.9c-0.3-0.5-0.5-1-0.9-1.6-0.3-0.6-0.7-1.2-1.1-1.9-0.8-1.3-1.6-2.9-2.7-4.6-4.2-7-10.6-17-20.1-28.7-4.7-5.9-10.2-12.1-16.5-18.6-6.2-6.6-13.4-13.3-21.2-20.2-7.8-6.9-16.5-13.9-25.9-21-4.7-3.5-9.6-7.1-14.7-10.6-1.3-0.9-2.6-1.8-3.8-2.7-0.6-0.4-1.3-0.9-1.9-1.3l-1-0.7c-0.2-0.1 0 0-0.1-0.1l-0.3-0.2-0.5-0.3c-2.7-1.8-5.4-3.7-8.2-5.5-2.7-1.7-5.4-3.5-8.1-5.2-2.8-1.7-5.6-3.5-8.5-5.3-2.9-1.7-5.8-3.5-8.7-5.3-3-1.7-5.9-3.5-8.9-5.2s-6.1-3.4-9.2-5.2c-3.1-1.7-6.2-3.4-9.4-5.1-6.3-3.4-12.8-6.7-19.4-10-6.6-3.2-13.4-6.4-20.3-9.5-1.7-0.8-3.4-1.6-5.2-2.3-1.7-0.8-3.5-1.5-5.2-2.3-3.5-1.5-7-3-10.6-4.5-3.5-1.5-7.2-2.9-10.8-4.3-3.6-1.4-7.3-2.8-11-4.2-7.4-2.7-14.8-5.4-22.4-7.9-30.4-10-62.3-18.1-95.2-23.7-4.1-0.7-8.2-1.4-12.4-2-2.1-0.3-4.1-0.6-6.2-0.9l-6.2-0.8c-4.2-0.6-8.3-1-12.5-1.5l-6.3-0.7-6.2-0.6c-16.6-1.6-33-2.6-49-2.5h-5.2c-1.5 0-3.3 0.2-5 0.3-3.4 0.3-6.9 0.9-10 1.4-1.6 0.3-3 0.6-4.3 0.9-1.2 0.3-2.3 0.7-2.9 0.8-0.6 0.1-0.8 0.2 0.1-0.8 0.4-0.5 1.2-1.4 2.1-2.9 0.9-1.5 1.9-3.9 2.3-6.7 0.4-2.8 0.1-5.6-0.5-7.6s-1.3-3.2-1.8-3.9-0.8-0.9-0.9-0.9c-0.1 0-0.1 0.2 0.1 0.5 0.4 0.6 1.2 1.4 2.2 2.3l0.4 0.4 0.2 0.2 0.3 0.3 1.3 1 2.6 2.1c3.4 2.7 6.8 5.4 10.3 8 3.5 2.7 6.9 5.3 10.3 8 13.8 10.6 27.7 21 41.6 31.1 7 5.1 13.9 10.1 20.8 15.1s13.8 9.9 20.6 14.8c13.7 9.8 27.1 19.6 40 29.5 12.9 9.9 25.3 19.9 37.2 30 11.8 10.1 23 20.3 33.5 30.6 5.2 5.1 10.2 10.1 15.2 15.4 4.9 5.2 9.6 10.6 13.9 16.4 4.2 5.8 8 11.9 10.8 18.5 1.4 3.3 2.6 6.6 3.5 10.1 0.9 3.4 1.5 6.9 1.8 10.3 0.2 1.7 0.2 3.4 0.2 5.1-0.1 1.7-0.1 3.4-0.2 5-0.2 3.3-0.9 6.5-1.6 9.7-0.8 3.1-1.7 6.1-2.8 8.9-0.3 0.7-0.5 1.3-0.8 2l-0.9 2.1c-0.3 0.7-0.6 1.4-1 2-0.3 0.7-0.6 1.3-1 2-5.3 10.3-11.8 18.8-18.3 26s-13 13.2-19.1 18.4c-6.1 5.1-11.8 9.3-17 12.8-5.1 3.5-9.6 6.2-13.3 8.3-3.7 2.1-6.6 3.6-8.6 4.6-2 0.9-3 1.4-3 1.4-1.8 0.8-3.9 0.1-4.7-1.7-0.8-1.7-0.1-3.8 1.5-4.6h0.1s1-0.5 2.8-1.5 4.6-2.5 8-4.7c6.9-4.3 16.8-11.2 28-21.5 5.6-5.2 11.5-11.2 17.2-18.2 2.8-3.5 5.6-7.3 8.3-11.4 2.6-4.1 5.1-8.4 7.1-13 0.2-0.6 0.5-1.2 0.7-1.7 0.3-0.6 0.5-1.2 0.7-1.7 0.2-0.6 0.4-1.1 0.6-1.7s0.4-1.3 0.6-1.9c0.8-2.4 1.4-4.9 1.8-7.4s0.7-5.1 0.8-7.7c0.1-1.3 0-2.6-0.1-3.9s-0.2-2.6-0.4-3.9c-1.5-10.4-7.1-20.5-15.1-30-8-9.4-18.3-18.3-29.2-27.6-10.8-9.1-22.3-18.2-34.5-27-24.3-17.7-51.2-34.8-79.7-51.7l-10.8-6.3c-3.6-2.1-7.3-4.1-11-6.2-7.3-4.2-14.8-8.2-22.4-12.3-15.2-8.2-30.7-16.4-46.2-24.7-3.9-2.1-7.8-4.2-11.7-6.4s-7.8-4.3-11.8-6.5l-2.9-1.6-1.4-0.8-0.4-0.2c-0.1 0-0.4-0.2-0.5-0.3l-1-0.6c-2.6-1.6-5.3-3.4-8.2-5.9-1.4-1.2-3-2.6-4.5-4.3-1.6-1.8-3.2-3.7-4.8-6.3s-3.3-5.8-4.4-9.9c-1.1-4.1-1.6-9.2-0.8-14.1s2.7-9.4 4.7-12.8c2.1-3.4 4.3-6 6.4-8 4.2-4 7.8-6.3 11.1-8.2s6.4-3.3 9.3-4.5c2.9-1.2 5.7-2.2 8.4-3.1 5.5-1.8 10.7-3 16.1-4.1 2.7-0.5 5.4-1 8.3-1.3l1.1-0.1 1.2-0.1c1.1-0.1 1.1-0.1 2.1-0.2l3.7-0.3c19.5-1.5 38.7-0.9 57.4 1l7.1 0.8 3.5 0.4 3.4 0.4c4.6 0.7 9.2 1.3 13.7 2.1 2.3 0.4 4.6 0.8 6.8 1.1 2.3 0.4 4.5 0.8 6.8 1.2 4.5 0.8 9 1.7 13.5 2.6 35.9 7.5 70.5 18 102.8 31 8.1 3.2 16 6.6 23.8 10.1 3.9 1.8 7.7 3.6 11.5 5.4 3.8 1.9 7.6 3.6 11.3 5.6 3.7 1.9 7.4 3.7 11.1 5.7 1.8 1 3.6 1.9 5.5 2.9l5.4 3c3.6 1.9 7.1 4 10.6 6s6.9 4.1 10.3 6.1c6.8 4.1 13.4 8.3 19.8 12.6 3.2 2.1 6.3 4.3 9.5 6.4 3.1 2.2 6.2 4.4 9.2 6.5 3 2.2 6 4.4 8.9 6.6 2.9 2.2 5.8 4.4 8.6 6.6 2.8 2.2 5.6 4.5 8.3 6.7 2.8 2.3 5.5 4.5 8.2 6.8 2.5 2.2 5.1 4.3 7.5 6.5l1.1 0.9 0.9 0.8c0.6 0.6 1.3 1.1 1.9 1.7 1.3 1.1 2.5 2.2 3.7 3.3 4.9 4.5 9.6 8.9 14.1 13.3 9 8.8 17.1 17.7 24.5 26.3 7.3 8.6 13.7 17.1 19.2 25.1 5.6 8.1 10.2 15.8 14.1 22.9 7.8 14.2 12.4 26.1 15.2 34.2 0.7 2 1.3 3.9 1.8 5.5 0.2 0.8 0.5 1.5 0.7 2.2 0.2 0.6 0.3 1.2 0.5 1.8 0.6 2.1 0.9 3.2 0.9 3.2 0.7 2.5-0.8 5-3.2 5.7-1.7 0.2-3.9-0.8-4.9-2.7z" p-id="955" fill="#1890ff"></path></svg>